<?xml version="1.0" encoding="UTF-8"?>
<!DOCTYPE svg PUBLIC "-//W3C//DTD SVG 1.1//EN" "http://www.w3.org/Graphics/SVG/1.1/DTD/svg11.dtd">
<!-- Creator: CorelDRAW -->
<svg xmlns="http://www.w3.org/2000/svg" xml:space="preserve" width="334px" height="334px" version="1.1" style="shape-rendering:geometricPrecision; text-rendering:geometricPrecision; image-rendering:optimizeQuality; fill-rule:evenodd; clip-rule:evenodd"
viewBox="0 0 334 334"
 xmlns:xlink="http://www.w3.org/1999/xlink"
 xmlns:xodm="http://www.corel.com/coreldraw/odm/2003">
 <defs>
  <style type="text/css">
   <![CDATA[
    .fil3 {fill:none}
    .fil4 {fill:#FEFEFE}
    .fil0 {fill:#A8CF45}
    .fil2 {fill:#5CC6D0}
    .fil1 {fill:#7A75B5}
   ]]>
  </style>
    <clipPath id="id0">
     <path d="M49.97 0.59l234.06 0c27.48,0 49.97,22.49 49.97,49.97l0 232.88c0,27.48 -22.49,49.97 -49.97,49.97l-234.06 0c-27.48,0 -49.97,-22.49 -49.97,-49.97l0 -232.88c0,-27.48 22.48,-49.97 49.97,-49.97z"/>
    </clipPath>
    <mask id="id1">
  <linearGradient id="id2" gradientUnits="userSpaceOnUse" x1="63.32" y1="-31.01" x2="197.14" y2="180.35">
   <stop offset="0" style="stop-opacity:1; stop-color:white"/>
   <stop offset="1" style="stop-opacity:0; stop-color:white"/>
  </linearGradient>
     <rect style="fill:url(#id2)" x="9.15" y="10.51" width="315.7" height="312.98"/>
    </mask>
 </defs>
 <g id="Camada_x0020_1">
  <metadata id="CorelCorpID_0Corel-Layer"/>
  <g id="_2229338137936">
   <g>
   </g>
   <g style="clip-path:url(#id0)">
    <g>
     <path class="fil0" d="M46.8 366.15l-4.72 0c-28.93,0 -52.6,-23.67 -52.6,-52.6l0 -211.67c29.88,-5.66 60.72,-8.64 92.25,-8.64l4.07 0.02c-29.11,59.4 -45.46,126.17 -45.46,196.76 0,25.95 2.22,51.39 6.46,76.13z"/>
     <path class="fil1" d="M341.89 167.57l0 145.98c0,28.93 -23.67,52.6 -52.6,52.6l-181.8 0c-4.9,-24.62 -7.48,-50.08 -7.48,-76.13 0,-69.83 18.45,-135.36 50.74,-191.98 69.4,9.75 134.17,33.98 191.14,69.53z"/>
     <path class="fil2" d="M241.8 -9.93l47.49 0c28.93,0 52.6,23.67 52.6,52.6l0 90.13c-52.83,-30.44 -111.47,-51.91 -173.86,-62.29 13.54,-19.71 28.83,-38.11 45.69,-54.96 8.93,-8.94 18.3,-17.45 28.08,-25.48z"/>
     <path class="fil1" d="M42.08 -9.93l113.58 0c-20.39,22.6 -38.51,47.29 -54.02,73.71 -6.61,-0.25 -13.25,-0.38 -19.91,-0.38 -31.48,0 -62.31,2.79 -92.25,8.13l0 -28.86c0,-28.93 23.67,-52.6 52.6,-52.6z"/>
    </g>
   </g>
   <path class="fil3" d="M49.97 0.59l234.06 0c27.48,0 49.97,22.49 49.97,49.97l0 232.88c0,27.48 -22.49,49.97 -49.97,49.97l-234.06 0c-27.48,0 -49.97,-22.49 -49.97,-49.97l0 -232.88c0,-27.48 22.48,-49.97 49.97,-49.97z"/>
   <path class="fil4" style="mask:url(#id1)" d="M55.18 11.69l223.64 0c24.67,0 44.85,18.91 44.85,42.02l0 226.58c0,23.11 -20.18,42.02 -44.85,42.02l-223.64 0c-24.67,0 -44.85,-18.91 -44.85,-42.02l0 -226.58c0,-23.11 20.18,-42.02 44.85,-42.02z"/>
  </g>
 </g>
</svg>
