<?xml version="1.0" encoding="UTF-8"?>
<!DOCTYPE svg PUBLIC "-//W3C//DTD SVG 1.1//EN" "http://www.w3.org/Graphics/SVG/1.1/DTD/svg11.dtd">
<!-- Creator: CorelDRAW -->
<svg xmlns="http://www.w3.org/2000/svg" xml:space="preserve" width="297mm" height="210mm" version="1.1" style="shape-rendering:geometricPrecision; text-rendering:geometricPrecision; image-rendering:optimizeQuality; fill-rule:evenodd; clip-rule:evenodd"
viewBox="0 0 29700 21000"
 xmlns:xlink="http://www.w3.org/1999/xlink"
 xmlns:xodm="http://www.corel.com/coreldraw/odm/2003">
 <defs>
  <style type="text/css">
   <![CDATA[
    .fil5 {fill:#040506}
    .fil1 {fill:#34363A}
    .fil4 {fill:#56595D}
    .fil3 {fill:#6FC0FA}
    .fil0 {fill:#8A66EE}
    .fil2 {fill:#A3CB5E}
   ]]>
  </style>
 </defs>
 <g id="Camada_x0020_1">
  <metadata id="CorelCorpID_0Corel-Layer"/>
  <g id="_2167524735568">
   <path class="fil0" d="M3661.99 14595.5c-147.15,-59.11 -194.95,-178.48 -343.97,-289.67 -134.84,-100.6 -190.01,-123.45 -319.81,-302.44 -373.02,-506.81 -666.11,-796.08 -922.54,-1441.88 -718.44,-1809.43 -465.68,-3713.24 666.74,-5239.68 1303.2,-1756.71 3708.68,-2285.34 5750.91,-1514.44 1061.74,400.81 2046.22,1296.69 2557.42,2321.35 622.33,1247.48 778.24,2677.43 334.25,4008.37 -1004.06,3009.78 -4464.39,4312.75 -6968.42,2920.19 -270.6,-150.49 -523.54,-274.1 -754.58,-461.8zm-2986.13 -4335.31c0,1572.23 242.07,2519.05 1067.95,3768.75 249.7,377.81 289.95,354.73 475.76,575.7 76.7,91.22 80.83,116.61 169.1,209.4 910.74,957.27 2548.06,1754.89 3922.98,1754.89 1167.02,0 1887.52,-24.84 2966,-566.88 406.58,-204.36 930.12,-534.73 1250.12,-852.77l331.67 -299.25c962.72,-1005.72 1760.94,-2452.7 1760.94,-3916.89 0,-749.94 26.03,-1253.47 -185.64,-2001.36 -420.53,-1485.71 -1373.46,-2932.5 -2758.37,-3676.57 -1802.96,-968.7 -3702.77,-1082.67 -5606.13,-264.6 -295.11,126.83 -649.32,349.13 -895.05,534.92 -1368.81,1035.08 -2499.33,2693.55 -2499.33,4734.66z"/>
   <polygon class="fil1" points="16599.14,14182.56 18720.31,14189.88 18705.91,16192.33 19599.03,16179.18 19604.63,11441.96 18719.88,11435.05 18699.96,13447.26 16589.4,13428.19 16585.42,11443.43 15703.2,11446.57 15699.96,16187.11 16590.34,16180.65 "/>
   <path class="fil1" d="M26554.58 13456.64c45.76,87.03 628.76,461.39 358.83,1465.27 -66.32,246.71 -147.88,289.1 -232.63,469.41 -238.93,302.94 -1034.52,383.21 -1365.85,-239.79 -193.03,-362.88 -206.2,-1251.98 177.51,-1608.76 256.37,-238.35 738.32,-332.76 1062.14,-86.13zm-2199.95 2775.84l841.15 0 0 -378.53c269.78,180.63 340.13,462.65 1135.58,462.65 248.16,0 472.95,-88.23 637.36,-161.75 458.89,-205.21 918.79,-883.9 918.79,-1478.53l0 -378.52c0,-840.91 -641.8,-1682.33 -1472.04,-1682.33 -926.05,0 -758.84,140.15 -1177.64,420.59l0 -1766.47 -883.2 0 0 4962.89z"/>
   <path class="fil1" d="M25828.69 9830.95l792.38 -1.29c202.14,-881.71 -472.81,-2794.31 760.51,-2814.98 662.59,-11.09 788.68,371.51 786.78,1015.94 -1.8,608.09 8.64,1219.92 -7.48,1826.71l800.41 -32.76c59.97,-295.82 18.89,-1186.15 19.41,-1541.11 1.35,-906.95 11.26,-1943.55 -1176.21,-1981.64 -810.29,-25.98 -937.55,345.21 -1156.28,408.67l-8.26 -1680.67 -810.16 -1.8 -1.1 4802.93z"/>
   <path class="fil1" d="M19686.17 6979.66l168.23 0c438.85,0 714.98,309.33 714.98,757.07l-1640.26 0c85.61,-367.58 310.97,-757.07 757.05,-757.07zm1303.8 2685.56c151.96,-29.6 279.42,-150.19 294.4,-330.28 -279.65,-74.7 -107.73,-206.77 -336.45,-243.11 -86.71,-59.33 -40.47,-32.39 -127.3,-83.26 -415.1,168.34 -645.03,410.24 -1234.08,255.41 -383.93,-100.94 -747.75,-495.29 -685.09,-963.59l2560.13 -0.99c-12.22,-550.28 -131.79,-1311.1 -485.7,-1558.27 -600.42,-734.63 -2883.34,-696.9 -2931.65,1295.32 -9.55,393.94 73.76,745.57 244.71,1052.64l449.11 522.2c361.62,273.7 762.39,329.44 1243.63,323.88 489.39,-5.67 646.9,-106.19 1008.29,-269.95z"/>
   <path class="fil1" d="M15924.82 5886.16c-63.52,288.02 -23.9,3428.93 -23.9,3995.51l1009.4 0c0,-574.51 40.18,-3709.26 -24.45,-3995.51 166.2,-83.66 1133.71,-46.33 1322.62,-44.02l15.24 -754.16 -3763.17 13.54 12.95 741.82c230.26,9.85 480.25,3.29 712.41,2.02 194.32,-1.07 588.93,-31.42 738.9,40.8z"/>
   <path class="fil1" d="M20401.17 15203.76c123.25,1144.47 1408.98,1333.61 2075.87,917.58 143.96,-89.82 156,-142.71 279.37,-225.34 0,200.35 10.17,115.93 48.19,168.24l62.06 120.37 686.34 4.58 -2.16 -3449.17 -806.44 -11.97c-21.99,434.71 28.24,2136.96 -37.1,2364.25 -34.68,120.66 -165.65,289.21 -254.28,336.45 -149.11,79.43 -64.69,36.65 -105.71,4.62 -19.04,7.9 -84.87,30.18 -99.43,37.63 -60.1,30.74 -44.08,23.4 -80.28,51.25 171.67,65.46 -466.16,113.64 -699.76,-104.48 -343.7,-320.94 -189.45,-1966.78 -209.24,-2689.9l-820.96 8.39c1.49,407.7 4.75,816.41 1.62,1225.06 -1.6,210.51 -0.94,420.42 0.99,630.88 0.9,100.04 4.17,196.14 7.22,295.62 3.16,103.73 9.89,222.68 -46.3,315.94z"/>
   <path class="fil1" d="M21957.32 7947.01l0 294.4c0,2084.47 2681.09,2072.85 3280.51,1177.65l-514.06 -537.46c-104.83,67.67 -366.77,369.21 -747.67,369.21 -1815.52,0 -1150.92,-2884.77 310.01,-2118.53 179.59,94.21 280.78,159.83 320.87,310.02 142.84,-38.15 550.67,-445.96 588.8,-588.81 -389.85,-582.21 -1036.61,-588.81 -1598.2,-588.81 -847.84,0 -1640.26,850.29 -1640.26,1682.33z"/>
   <path class="fil2" d="M5176.08 11466.95c-395.71,46.76 -730.11,477.98 -819.12,960.82 -54.25,294.35 13.28,320.08 20.03,535.9l52.01 102.74c21.34,47.89 26.22,73.64 50.58,123.32 104.95,213.99 236.39,341.9 408.71,477.19 386.79,288.34 1055.73,239.43 1412.24,-53.17 484.48,-397.69 499.21,-653.12 431.72,-1412.49 -86.28,-177.41 -68.03,-260.9 -212.35,-383.72l-157.8 -134.24c-40.82,-37.66 -78.48,-60.73 -138.2,-119.28 -90.88,-50.68 -117.44,-67 -248.7,-103.96 -355.43,-45.68 -426.91,-126.4 -799.12,6.89z"/>
   <path class="fil0" d="M8120.16 10094.77l57.76 100.47c138.39,276.71 147.94,353.83 363.91,527.98l49.75 41.69c24.22,24.83 12.31,22.13 60.77,58.33l260.37 116.42c1607.44,494.37 2219.93,-1755.3 787.86,-2259.89 -579.04,-204.02 -1186.39,52.5 -1468.59,556.68 -185.68,331.68 -167.41,452.7 -111.83,858.32z"/>
   <path class="fil3" d="M5176.08 9178.59c298.13,81.18 503.52,98.02 799.12,-4.67 99.61,-3.72 -20.66,17.37 84.5,-13.74l240.83 -130.67c604.97,-500.59 654.08,-1243.64 91.48,-1835.79l-132.22 -120.14c-555.2,-420.24 -1723.84,-150.34 -1873.83,756.26 -64.86,391.98 31.65,675.94 176.88,898.65 85.91,131.77 141.09,189.83 263.28,283.5 140.31,107.54 181.62,155.19 349.96,166.6z"/>
   <path class="fil4" d="M6223.9 11564.02c59.72,58.55 97.38,81.62 138.2,119.28l157.8 134.24c144.32,122.82 126.07,206.31 212.35,383.72 37.75,-112.73 65.51,-105.48 191.32,-193.8l1668.01 -1242.55 -49.75 -41.69c-215.97,-174.15 -225.52,-251.27 -363.91,-527.98l-57.76 -100.47 -1423.91 1096.79c-119.91,89.94 -393.78,273.11 -472.35,372.46z"/>
   <path class="fil4" d="M5176.08 11466.95c372.21,-133.29 443.69,-52.57 799.12,-6.89l0 -2286.14c-295.6,102.69 -500.99,85.85 -799.12,4.67l0 2288.36z"/>
   <path class="fil4" d="M2998.21 14003.39c129.8,178.99 184.97,201.84 319.81,302.44 149.02,111.19 196.82,230.56 343.97,289.67 77.89,-122.25 150.49,-141.68 276.62,-231.41l949.68 -697.17c-172.32,-135.29 -303.76,-263.2 -408.71,-477.19 -24.36,-49.68 -29.24,-75.43 -50.58,-123.32l-52.01 -102.74c-113.75,129.3 -206.79,189.56 -330.67,288.48l-1048.11 751.24z"/>
   <path class="fil5" d="M16590.34 16180.65l-890.38 6.46 3.24 -4740.54 882.22 -3.14 3.98 1984.76 2110.56 19.07 19.92 -2012.21 884.75 6.91 -5.6 4737.22 -893.12 13.15 14.4 -2002.45 -2121.17 -7.32 -8.8 1998.09zm-941.75 51.83l1009.4 0 0 -2018.81 2018.78 0 0 2018.81 967.35 0 1.82 -4817.24c-63.97,-117.08 -197.15,-26 -392.43,-42.24l-576.74 22.79 0 1976.73 -2018.78 0 0 -1892.61c0,-149.61 14.65,-43.02 -50.9,-93.53 -3.75,-2.89 -14.29,-9.32 -18.75,-11.66 -96.57,-50.11 -381.84,17.72 -639.54,10.65 -183.27,-5.02 -139.91,-18.3 -300.21,-31.63l0 4878.74z"/>
   <path class="fil5" d="M25829.79 5028.02l810.16 1.8 8.26 1680.67c218.73,-63.46 345.99,-434.65 1156.28,-408.67 1187.47,38.09 1177.56,1074.69 1176.21,1981.64 -0.52,354.96 40.56,1245.29 -19.41,1541.11l-800.41 32.76c16.12,-606.79 5.68,-1218.62 7.48,-1826.71 1.9,-644.43 -124.19,-1027.03 -786.78,-1015.94 -1233.32,20.67 -558.37,1933.27 -760.51,2814.98l-792.38 1.29 1.1 -4802.93zm-45.2 4853.65l925.29 0 0 -2144.94c0,-817.09 1045,-835.39 1303.95,-378.68 117.45,207.15 84.43,482.16 83.96,799.28 -0.5,340.52 43.11,549.79 43.53,839.69 0.41,294.7 -1.45,589.84 -1.45,884.65l883.21 0 0 -2229.09c0,-742.5 -397.4,-1387.9 -1135.57,-1387.9 -829.07,0 -674.47,41.6 -1177.63,378.53l0 -1682.33 -925.29 0 0 4920.79z"/>
   <path class="fil5" d="M20989.97 9665.22c-361.39,163.76 -518.9,264.28 -1008.29,269.95 -481.24,5.56 -882.01,-50.18 -1243.63,-323.88l-449.11 -522.2c-170.95,-307.07 -254.26,-658.7 -244.71,-1052.64 48.31,-1992.22 2331.23,-2029.95 2931.65,-1295.32l-121.58 -172.51c-708.99,-624.54 -2851.88,-460.59 -2851.76,1503.82 0.11,1334.42 956.95,1993.48 1977.29,1936.66 354.28,-19.74 864.16,-124.94 1010.14,-343.88z"/>
   <path class="fil5" d="M22347.31 15433.37c41.02,32.03 -43.4,74.81 105.71,-4.62 88.63,-47.24 219.6,-215.79 254.28,-336.45 65.34,-227.29 15.11,-1929.54 37.1,-2364.25l806.44 11.97 2.16 3449.17 -686.34 -4.58 -62.06 -120.37 -7.36 168.19 800.34 0.05c0,-740.92 -34.19,-2746.3 11.48,-3405.92 18.53,-267.3 -92.13,-169.04 -936.76,-169.04 0,518.72 0,1037.43 0,1556.15 0,678.28 114.78,942.02 -324.99,1219.7z"/>
   <path class="fil5" d="M20401.17 15203.76c56.19,-93.26 49.46,-212.21 46.3,-315.94 -3.05,-99.48 -6.32,-195.58 -7.22,-295.62 -1.93,-210.46 -2.59,-420.37 -0.99,-630.88 3.13,-408.65 -0.13,-817.36 -1.62,-1225.06l820.96 -8.39c19.79,723.12 -134.46,2368.96 209.24,2689.9 233.6,218.12 871.43,169.94 699.76,104.48 -712.03,-31.2 -843.24,-162.74 -841.2,-1014.11 1.47,-616.79 0.05,-1233.79 0.05,-1850.62 -1171.94,0 -925.21,-211.86 -925.28,757.07 -0.09,596.39 0,1192.76 0,1789.17z"/>
   <path class="fil5" d="M15924.82 5886.16c-149.97,-72.22 -544.58,-41.87 -738.9,-40.8 -232.16,1.27 -482.15,7.83 -712.41,-2.02l-12.95 -741.82 3763.17 -13.54 -15.24 754.16c-188.91,-2.31 -1156.42,-39.64 -1322.62,44.02l1412.37 0 0 -841.16 -3869.37 0 0 841.16 1495.95 0z"/>
   <path class="fil5" d="M20947.92 9091.83c-146.41,-312.81 -148.46,-113.32 -461.72,33.68 -690.58,324.12 -1540.13,3.96 -1557.08,-757.93l2565.53 0c0,-417.15 14.2,-636.32 -87.94,-963.47 -43.57,-139.58 -95.62,-259.69 -165.35,-381.44 -112.6,-196.63 -131.71,-231.34 -265.48,-281.54 353.91,247.17 473.48,1007.99 485.7,1558.27l-2560.13 0.99c-62.66,468.3 301.16,862.65 685.09,963.59 589.05,154.83 818.98,-87.07 1234.08,-255.41 86.83,50.87 40.59,23.93 127.3,83.26z"/>
   <path class="fil5" d="M26680.78 15391.32c-168.23,39.01 -499.16,332.13 -1010.26,72.03 -603.05,-306.91 -686.59,-1969.59 286.29,-2088.27 313.79,-38.28 358.75,63.94 597.77,81.56 -323.82,-246.63 -805.77,-152.22 -1062.14,86.13 -383.71,356.78 -370.54,1245.88 -177.51,1608.76 331.33,623 1126.92,542.73 1365.85,239.79z"/>
  </g>
 </g>
</svg>
