<?xml version="1.0" encoding="UTF-8"?>
<!DOCTYPE svg PUBLIC "-//W3C//DTD SVG 1.1//EN" "http://www.w3.org/Graphics/SVG/1.1/DTD/svg11.dtd">
<!-- Creator: CorelDRAW -->
<svg xmlns="http://www.w3.org/2000/svg" xml:space="preserve" width="297mm" height="210mm" version="1.1" style="shape-rendering:geometricPrecision; text-rendering:geometricPrecision; image-rendering:optimizeQuality; fill-rule:evenodd; clip-rule:evenodd"
viewBox="0 0 29700 21000"
 xmlns:xlink="http://www.w3.org/1999/xlink"
 xmlns:xodm="http://www.corel.com/coreldraw/odm/2003">
 <defs>
  <style type="text/css">
   <![CDATA[
    .fil0 {fill:#FEFEFE}
    .fil3 {fill:#E6E7E8}
    .fil2 {fill:#D2D3D5}
    .fil1 {fill:#BDBFC1}
   ]]>
  </style>
 </defs>
 <g id="Camada_x0020_1">
  <metadata id="CorelCorpID_0Corel-Layer"/>
  <g id="_2204489983952">
   <g>
    <path class="fil0" d="M2201.38 12892.48c-85.86,-34.49 -113.75,-104.14 -200.7,-169.01 -78.67,-58.7 -110.86,-72.03 -186.59,-176.46 -217.63,-295.7 -388.64,-464.47 -538.25,-841.26 -419.18,-1055.71 -271.7,-2166.49 389.01,-3057.09 760.34,-1024.95 2163.82,-1333.38 3355.35,-883.6 619.47,233.85 1193.87,756.55 1492.13,1354.39 363.1,727.84 454.06,1562.15 195.02,2338.68 -585.82,1756.05 -2604.74,2516.27 -4065.72,1703.78 -157.88,-87.8 -305.46,-159.92 -440.25,-269.43zm-1742.26 -2529.44c0,917.32 141.23,1469.74 623.1,2198.88 145.68,220.43 169.16,206.96 277.58,335.89 44.74,53.22 47.16,68.04 98.66,122.17 531.37,558.52 1486.66,1023.89 2288.85,1023.89 680.9,0 1101.27,-14.49 1730.52,-330.75 237.21,-119.23 542.67,-311.98 729.38,-497.54l193.51 -174.6c561.69,-586.79 1027.42,-1431.02 1027.42,-2285.3 0,-437.56 15.18,-731.34 -108.32,-1167.69 -245.36,-866.84 -801.34,-1710.97 -1609.36,-2145.09 -1051.94,-565.19 -2160.38,-631.69 -3270.89,-154.38 -172.18,73.99 -378.85,203.69 -522.22,312.09 -798.63,603.92 -1458.23,1571.55 -1458.23,2762.43z"/>
    <path class="fil1" d="M3084.77 11067.13c-230.88,27.28 -425.98,278.87 -477.92,560.58 -31.65,171.75 7.75,186.76 11.69,312.68l30.34 59.94c12.45,27.94 15.3,42.96 29.52,71.95 61.23,124.85 137.92,199.48 238.46,278.42 225.67,168.23 615.96,139.69 823.96,-31.03 282.68,-232.03 291.27,-381.06 251.89,-824.11 -50.34,-103.51 -39.69,-152.22 -123.89,-223.88l-92.07 -78.33c-23.82,-21.97 -45.79,-35.43 -80.63,-69.59 -53.03,-29.57 -68.52,-39.09 -145.11,-60.65 -207.37,-26.65 -249.08,-73.75 -466.24,4.02z"/>
    <path class="fil2" d="M4802.49 10266.53l33.7 58.62c80.74,161.45 86.31,206.44 212.32,308.05l29.02 24.32c14.14,14.49 7.19,12.91 35.46,34.04l151.92 67.92c937.85,288.44 1295.21,-1024.13 459.67,-1318.53 -337.84,-119.03 -692.2,30.63 -856.85,324.79 -108.33,193.52 -97.67,264.13 -65.24,500.79z"/>
    <path class="fil3" d="M3084.77 9731.99c173.94,47.36 293.78,57.19 466.24,-2.73 58.12,-2.17 -12.05,10.13 49.3,-8.01l140.51 -76.25c352.97,-292.06 381.63,-725.59 53.38,-1071.08l-77.15 -70.1c-323.92,-245.19 -1005.77,-87.71 -1093.28,441.24 -37.84,228.7 18.47,394.38 103.21,524.31 50.12,76.89 82.31,110.76 153.6,165.41 81.87,62.75 105.97,90.55 204.19,97.21z"/>
    <path class="fil0" d="M3696.12 11123.76c34.84,34.16 56.81,47.62 80.63,69.59l92.07 78.33c84.2,71.66 73.55,120.37 123.89,223.88 22.03,-65.77 38.22,-61.55 111.63,-113.07l973.19 -724.97 -29.02 -24.32c-126.01,-101.61 -131.58,-146.6 -212.32,-308.05l-33.7 -58.62 -830.78 639.92c-69.96,52.48 -229.75,159.35 -275.59,217.31z"/>
    <path class="fil0" d="M3084.77 11067.13c217.16,-77.77 258.87,-30.67 466.24,-4.02l0 -1333.85c-172.46,59.92 -292.3,50.09 -466.24,2.73l0 1335.14z"/>
    <path class="fil0" d="M1814.09 12547.01c75.73,104.43 107.92,117.76 186.59,176.46 86.95,64.87 114.84,134.52 200.7,169.01 45.44,-71.33 87.8,-82.67 161.39,-135.02l554.09 -406.76c-100.54,-78.94 -177.23,-153.57 -238.46,-278.42 -14.22,-28.99 -17.07,-44.01 -29.52,-71.95l-30.34 -59.94c-66.37,75.44 -120.65,110.6 -192.93,168.31l-611.52 438.31z"/>
   </g>
   <g>
    <g>
     <path class="fil0" d="M16407.42 12262.06l588.89 -0.95c150.22,-655.28 -351.39,-2076.7 565.19,-2092.05 492.43,-8.25 586.13,276.09 584.73,755.02 -1.34,451.93 6.42,906.63 -5.56,1357.59l594.85 -24.35c44.57,-219.85 14.04,-881.53 14.43,-1145.33 1,-674.03 8.36,-1444.41 -874.15,-1472.72 -602.19,-19.31 -696.77,256.55 -859.33,303.72l-6.14 -1249.05 -602.1 -1.34 -0.81 3569.46z"/>
     <path class="fil0" d="M11842.39 10143.03l125.03 0c326.14,0 531.36,229.88 531.36,562.64l-1219.02 0c63.63,-273.18 231.11,-562.64 562.63,-562.64zm968.97 1995.87c112.93,-22 207.65,-111.62 218.79,-245.47 -207.83,-55.51 -80.07,-153.66 -250.04,-180.67 -64.44,-44.09 -30.08,-24.07 -94.61,-61.88 -308.5,125.11 -479.38,304.88 -917.16,189.82 -285.32,-75.01 -555.71,-368.09 -509.14,-716.13l1902.65 -0.73c-9.08,-408.96 -97.95,-974.39 -360.97,-1158.08 -446.22,-545.97 -2142.85,-517.93 -2178.75,962.66 -7.1,292.77 54.82,554.09 181.86,782.31l333.77 388.08c268.75,203.42 566.6,244.84 924.25,240.71 363.7,-4.22 480.77,-78.92 749.35,-200.62z"/>
     <path class="fil0" d="M9047.01 9330.35c-47.2,214.06 -17.76,2548.33 -17.76,2969.41l750.17 0c0,-426.97 29.86,-2756.67 -18.17,-2969.41 123.52,-62.17 842.56,-34.43 982.96,-32.71l11.32 -560.48 -2796.73 10.07 9.62 551.3c171.13,7.33 356.92,2.44 529.45,1.5 144.42,-0.79 437.69,-23.35 549.14,30.32z"/>
     <path class="fil0" d="M13530.28 10861.95l0 218.79c0,1549.15 1992.54,1540.51 2438.02,875.21l-382.04 -399.43c-77.91,50.29 -272.58,274.39 -555.66,274.39 -1349.26,0 -855.35,-2143.91 230.4,-1574.45 133.47,70.01 208.67,118.78 238.46,230.4 106.16,-28.36 409.25,-331.44 437.59,-437.6 -289.73,-432.69 -770.4,-437.59 -1187.76,-437.59 -630.1,0 -1219.01,631.92 -1219.01,1250.28z"/>
     <path class="fil0" d="M16408.23 8692.6l602.1 1.34 6.14 1249.05c162.56,-47.17 257.14,-323.03 859.33,-303.72 882.51,28.31 875.15,798.69 874.15,1472.72 -0.39,263.8 30.14,925.48 -14.43,1145.33l-594.85 24.35c11.98,-450.96 4.22,-905.66 5.56,-1357.59 1.4,-478.93 -92.3,-763.27 -584.73,-755.02 -916.58,15.35 -414.97,1436.77 -565.19,2092.05l-588.89 0.95 0.81 -3569.46zm-33.59 3607.16l687.67 0 0 -1594.09c0,-607.25 776.62,-620.85 969.07,-281.43 87.29,153.95 62.75,358.34 62.4,594.01 -0.37,253.08 32.04,408.6 32.35,624.05 0.3,219.01 -1.08,438.36 -1.08,657.46l656.39 0 0 -1656.63c0,-551.81 -295.34,-1031.46 -843.94,-1031.46 -616.15,0 -501.26,30.91 -875.19,281.31l0 -1250.28 -687.67 0 0 3657.06z"/>
     <path class="fil0" d="M12811.36 12138.9c-268.58,121.7 -385.65,196.4 -749.35,200.62 -357.65,4.13 -655.5,-37.29 -924.25,-240.71l-333.77 -388.08c-127.04,-228.22 -188.96,-489.54 -181.86,-782.31 35.9,-1480.59 1732.53,-1508.63 2178.75,-962.66l-90.35 -128.21c-526.91,-464.15 -2119.47,-342.31 -2119.39,1117.62 0.08,991.72 711.19,1481.52 1469.5,1439.29 263.29,-14.67 642.22,-92.85 750.72,-255.56z"/>
     <path class="fil0" d="M9047.01 9330.35c-111.45,-53.67 -404.72,-31.11 -549.14,-30.32 -172.53,0.94 -358.32,5.83 -529.45,-1.5l-9.62 -551.3 2796.73 -10.07 -11.32 560.48c-140.4,-1.72 -859.44,-29.46 -982.96,32.71l1049.66 0 0 -625.13 -2875.66 0 0 625.13 1111.76 0z"/>
     <path class="fil0" d="M12780.11 11712.76c-108.82,-232.47 -110.34,-84.21 -343.15,25.03 -513.22,240.88 -1144.6,2.94 -1157.2,-563.28l1906.67 0c0,-310.02 10.55,-472.91 -65.36,-716.04 -32.38,-103.73 -71.06,-193 -122.89,-283.48 -83.68,-146.13 -97.88,-171.93 -197.3,-209.23 263.02,183.69 351.89,749.12 360.97,1158.08l-1902.65 0.73c-46.57,348.04 223.82,641.12 509.14,716.13 437.78,115.06 608.66,-64.71 917.16,-189.82 64.53,37.81 30.17,17.79 94.61,61.88z"/>
    </g>
    <g>
     <polygon class="fil0" points="20850.46,10782.14 22426.88,10787.58 22416.18,12275.78 23079.93,12266.01 23084.1,8745.37 22426.56,8740.23 22411.75,10235.68 20843.22,10221.51 20840.26,8746.46 20184.61,8748.8 20182.2,12271.9 20843.92,12267.1 "/>
     <path class="fil0" d="M28249.19 10242.65c34.01,64.68 467.29,342.9 266.68,1088.97 -49.29,183.35 -109.9,214.85 -172.89,348.86 -177.57,225.13 -768.84,284.79 -1015.07,-178.21 -143.46,-269.69 -153.25,-930.45 131.92,-1195.6 190.53,-177.15 548.7,-247.31 789.36,-64.02zm-1634.97 2062.96l625.14 0 0 -281.31c200.49,134.24 252.77,343.83 843.94,343.83 184.43,0 351.49,-65.57 473.67,-120.21 341.04,-152.51 682.84,-656.9 682.84,-1098.82l0 -281.31c0,-624.95 -476.98,-1250.28 -1094.01,-1250.28 -688.22,0 -563.95,104.16 -875.19,312.58l0 -1312.82 -656.39 0 0 3688.34z"/>
     <path class="fil0" d="M23676.07 11541.09c91.6,850.54 1047.13,991.11 1542.76,681.93 106.98,-66.76 115.93,-106.06 207.62,-167.47 0,148.89 7.56,86.15 35.81,125.03l46.13 89.46 510.07 3.4 -1.6 -2563.37 -599.33 -8.9c-16.35,323.07 20.98,1588.16 -27.58,1757.08 -25.77,89.68 -123.11,214.93 -188.98,250.05 -110.81,59.02 -48.07,27.23 -78.56,3.43 -14.15,5.87 -63.07,22.43 -73.9,27.97 -44.66,22.84 -32.75,17.38 -59.65,38.08 127.58,48.65 -346.45,84.45 -520.05,-77.64 -255.44,-238.52 -140.8,-1461.69 -155.51,-1999.1l-610.13 6.24c1.11,302.99 3.54,606.74 1.21,910.44 -1.19,156.45 -0.7,312.45 0.73,468.86 0.68,74.35 3.1,145.77 5.37,219.7 2.35,77.09 7.35,165.49 -34.41,234.81z"/>
     <path class="fil0" d="M20843.92 12267.1l-661.72 4.8 2.41 -3523.1 655.65 -2.34 2.96 1475.05 1568.53 14.17 14.81 -1495.45 657.54 5.14 -4.17 3520.64 -663.75 9.77 10.7 -1488.2 -1576.42 -5.44 -6.54 1484.96zm-699.9 38.51l750.18 0 0 -1500.34 1500.32 0 0 1500.34 718.92 0 1.36 -3580.09c-47.55,-87.02 -146.52,-19.33 -291.65,-31.4l-428.63 16.94 0 1469.07 -1500.32 0 0 -1406.56c0,-111.18 10.89,-31.96 -37.83,-69.5 -2.79,-2.15 -10.62,-6.93 -13.94,-8.67 -71.76,-37.24 -283.77,13.17 -475.3,7.91 -136.2,-3.73 -103.97,-13.6 -223.11,-23.5l0 3625.8z"/>
     <path class="fil0" d="M25122.41 11711.73c30.49,23.8 -32.25,55.59 78.56,-3.43 65.87,-35.12 163.21,-160.37 188.98,-250.05 48.56,-168.92 11.23,-1434.01 27.58,-1757.08l599.33 8.9 1.6 2563.37 -510.07 -3.4 -46.13 -89.46 -5.46 125 594.79 0.03c0,-550.64 -25.41,-2041 8.54,-2531.22 13.76,-198.66 -68.48,-125.63 -696.19,-125.63 0,385.51 0,771 0,1156.51 0,504.08 85.31,700.09 -241.53,906.46z"/>
     <path class="fil0" d="M23676.07 11541.09c41.76,-69.32 36.76,-157.72 34.41,-234.81 -2.27,-73.93 -4.69,-145.35 -5.37,-219.7 -1.43,-156.41 -1.92,-312.41 -0.73,-468.86 2.33,-303.7 -0.1,-607.45 -1.21,-910.44l610.13 -6.24c14.71,537.41 -99.93,1760.58 155.51,1999.1 173.6,162.09 647.63,126.29 520.05,77.64 -529.17,-23.19 -626.69,-120.94 -625.17,-753.67 1.09,-458.39 0.03,-916.93 0.03,-1375.35 -870.96,0 -687.6,-157.45 -687.65,562.64 -0.06,443.23 0,886.44 0,1329.69z"/>
     <path class="fil0" d="M28342.98 11680.48c-125.03,28.99 -370.97,246.83 -750.81,53.53 -448.18,-228.09 -510.26,-1463.77 212.77,-1551.97 233.2,-28.45 266.62,47.51 444.25,60.61 -240.66,-183.29 -598.83,-113.13 -789.36,64.02 -285.17,265.15 -275.38,925.91 -131.92,1195.6 246.23,463 837.5,403.34 1015.07,178.21z"/>
    </g>
   </g>
  </g>
 </g>
</svg>
